<svg xmlns="http://www.w3.org/2000/svg" viewBox="0 0 77.12 84.8"><defs><style>.cls-1{fill:#2860a3}</style></defs><title>Asset 7</title><g id="Layer_2" data-name="Layer 2"><g id="Layer_6" data-name="Layer 6"><path class="cls-1" d="M46 35.23a3.3 3.3 0 0 0 3.42-3.54 2 2 0 0 0-.06-.6c3.24 0 5.82 2 7.32 5.4l2.88-1.2c-2-4.86-6.06-7.86-11.22-7.86-3.6 0-5.82 1.56-5.82 4.14A3.45 3.45 0 0 0 46 35.23zM24.67 35.41a3.57 3.57 0 1 0 0-7.14 3.58 3.58 0 1 0 0 7.14z"/><path class="cls-1" d="M69.71 19.19a35.11 35.11 0 0 0-62.26-.62C2.94 26.21 0 34.47 0 44.42a49.9 49.9 0 0 0 7.92 27.24C15.18 78.79 28 84.8 38.61 84.8s23.8-6 30.59-13.14a49.9 49.9 0 0 0 7.92-27.24c0-9.76-3.02-17.73-7.41-25.23zM60 58.89a32.07 32.07 0 0 1-45.59-2.39c.66-1.49 2.26-1.94 5.09-1.94 3.66 0 6.78.36 10.86.36 3.84 0 5.82-1 6.54-3.6h.24c.72 2.58 2.64 3.6 6.54 3.6 4.08 0 7.2-.36 10.86-.36 3.9 0 5.46.84 5.46 4.08zm2.74-2.83c-.39-3.71-2.41-5.52-7.9-5.52-4.38 0-7.56.54-11.64.54-2.28 0-4.56-1.08-4.62-5.16H35.5c-.06 4.08-2.34 5.16-4.68 5.16-4 0-7.2-.54-11.58-.54-4 0-6.16 1-7.19 2.92a31.94 31.94 0 0 1-5.76-18.32v-1c.54-5.51 1.8-10.8 4.66-15.52h-.08a32.38 32.38 0 0 1 6.49-7.71c3 1.89 11.54 6.55 20.37 5.75 8-.72 16.46-4.59 20.56-6.68a32.22 32.22 0 0 1 11.15 16.8 43.8 43.8 0 0 1 1 5.45c.09 1 .14 1.92.14 2.9a32 32 0 0 1-7.81 20.93z"/></g></g></svg>