<svg xmlns="http://www.w3.org/2000/svg" viewBox="0 0 80 80"><title>Artboard 1</title><path d="M64.92 21.43a28.09 28.09 0 0 0-49.81-.5 39.78 39.78 0 0 0 .38 42.48c5.81 5.7 16.1 10.51 24.51 10.51s19-4.81 24.47-10.52a39.93 39.93 0 0 0 6.34-21.79c.03-7.8-2.38-14.18-5.89-20.18zm-7.74 31.76a25.65 25.65 0 0 1-36.47-1.91c.53-1.19 1.8-1.55 4.07-1.55 2.93 0 5.42.29 8.69.29 3.07 0 4.66-.82 5.23-2.88h.19C39.47 49.2 41 50 44.13 50s5.76-.29 8.69-.29c3.12 0 4.37.67 4.37 3.26zm2.19-2.26c-.31-3-1.93-4.42-6.32-4.42-3.5 0-6 .43-9.31.43-1.82 0-3.65-.86-3.7-4.13h-2.5c0 3.26-1.87 4.13-3.74 4.13-3.22 0-5.76-.43-9.26-.43-3.2 0-4.93.77-5.75 2.33a25.56 25.56 0 0 1-4.6-14.66v-.8A29 29 0 0 1 17.94 21h-.06a25.9 25.9 0 0 1 5.19-6.17c2.43 1.51 9.23 5.24 16.29 4.6 6.38-.58 13.17-3.67 16.44-5.34a25.78 25.78 0 0 1 8.9 13.48 35 35 0 0 1 .78 4.36c.07.77.11 1.54.11 2.32a25.59 25.59 0 0 1-6.22 16.68z" fill="#02b3e4"/><path d="M45.92 34.27a2.64 2.64 0 0 0 2.74-2.83 1.63 1.63 0 0 0 0-.48c2.59 0 4.66 1.63 5.86 4.32l2.3-1c-1.63-3.89-4.85-6.29-9-6.29-2.88 0-4.66 1.25-4.66 3.31a2.76 2.76 0 0 0 2.76 2.97zM28.89 34.41a2.86 2.86 0 1 0 0-5.71 2.86 2.86 0 1 0 0 5.71z" fill="#02b3e4"/></svg>